<svg xmlns="http://www.w3.org/2000/svg" viewBox="0 0 11.712 20">
  <defs>
    <style>
      .cls-1 {
        fill: #fff;
      }
    </style>
  </defs>
  <path id="path" class="cls-1" d="M827.56,382.8a1.957,1.957,0,0,1,1.622.721,2.313,2.313,0,0,1,.631,1.622v15.315a2.171,2.171,0,0,1-.631,1.622,2.256,2.256,0,0,1-1.622.721h-7.207a1.957,1.957,0,0,1-1.622-.721,2.313,2.313,0,0,1-.631-1.622V385.142a2.171,2.171,0,0,1,.631-1.622,2.256,2.256,0,0,1,1.622-.721Zm.45,15.315V385.5H819.9v12.613Zm-5.045,3.243a1.543,1.543,0,1,0-.36-.991A1.639,1.639,0,0,0,822.965,401.359Z" transform="translate(-818.1 -382.8)"/>
</svg>
