<svg xmlns="http://www.w3.org/2000/svg" viewBox="0 0 20 17.172">
  <defs>
    <style>
      .cls-1 {
        fill: #fff;
      }
    </style>
  </defs>
  <g id="Group_1437" data-name="Group 1437" transform="translate(0 0)">
    <path id="Path_760" data-name="Path 760" class="cls-1" d="M18.695,3.567A9.012,9.012,0,0,0,15.041.96,12.988,12.988,0,0,0,10.016,0,13.278,13.278,0,0,0,6.123.566a11.019,11.019,0,0,0-3.19,1.526A7.453,7.453,0,0,0,.806,4.374,5.208,5.208,0,0,0,0,7.152a5.467,5.467,0,0,0,1.012,3.139,8.022,8.022,0,0,0,2.761,2.453,7.2,7.2,0,0,1-.292.858,6.011,6.011,0,0,1-.309.652,3.789,3.789,0,0,1-.36.566c-.154.206-.274.36-.343.446-.086.086-.206.223-.377.429s-.292.326-.343.377a1.05,1.05,0,0,0-.086.1,1.05,1.05,0,0,1-.086.1l-.069.1a.265.265,0,0,0-.051.1.453.453,0,0,1-.017.12.188.188,0,0,0,0,.137v.017a.718.718,0,0,0,.189.309.415.415,0,0,0,.343.1,7.615,7.615,0,0,0,1.269-.24,12.206,12.206,0,0,0,5.145-2.71A13.213,13.213,0,0,0,10,14.3a12.988,12.988,0,0,0,5.025-.96,8.95,8.95,0,0,0,3.636-2.607A5.589,5.589,0,0,0,20,7.135a5.347,5.347,0,0,0-1.3-3.567Zm0,0"/>
  </g>
</svg>
